<svg xmlns="http://www.w3.org/2000/svg" width="280.357" height="94.343" viewBox="0 0 280.357 94.343">
  <g id="Layer_2" data-name="Layer 2" transform="translate(0.005 -0.001)">
    <g id="Layer_1" data-name="Layer 1" transform="translate(-0.004 0.001)">
      <path id="Path_1" data-name="Path 1" d="M0,61.1a25.542,25.542,0,0,1,1.574-9.327A19.217,19.217,0,0,1,5.847,45.04,17.779,17.779,0,0,1,12.1,40.965,21.4,21.4,0,0,1,19.8,39.6a20.707,20.707,0,0,1,7.5,1.365,17.633,17.633,0,0,1,6.253,4.075A19.3,19.3,0,0,1,37.8,51.772,25.543,25.543,0,0,1,39.372,61.1a26.47,26.47,0,0,1-1.188,8.254,19.8,19.8,0,0,1-3.293,6.253,17.466,17.466,0,0,1-4.929,4.273,18.592,18.592,0,0,1-6.023,2.23,3.3,3.3,0,0,0,1.219,2.407A9.984,9.984,0,0,0,28.1,86.266a24.124,24.124,0,0,0,3.97,1.188,42.882,42.882,0,0,0,4.4.709L35.1,92.675a55.087,55.087,0,0,1-5.919-1.084,24.918,24.918,0,0,1-5.106-1.813,12.318,12.318,0,0,1-3.887-2.866A9.379,9.379,0,0,1,18.1,82.546,19.915,19.915,0,0,1,11.036,80.8a17.362,17.362,0,0,1-5.763-4.221A19.8,19.8,0,0,1,1.417,70.02,25.7,25.7,0,0,1,0,61.1Zm6.055,0A23.073,23.073,0,0,0,7,67.894,15.288,15.288,0,0,0,9.713,73.1,11.734,11.734,0,0,0,13.986,76.4a13.443,13.443,0,0,0,5.669,1.136,13.235,13.235,0,0,0,5.638-1.157,11.839,11.839,0,0,0,4.252-3.293,15.278,15.278,0,0,0,2.7-5.211,24.813,24.813,0,0,0,0-13.548,15.277,15.277,0,0,0-2.7-5.211,11.838,11.838,0,0,0-4.252-3.293,13.235,13.235,0,0,0-5.638-1.157,13.443,13.443,0,0,0-5.669,1.157,11.734,11.734,0,0,0-4.273,3.293A15.288,15.288,0,0,0,7,54.325,23.073,23.073,0,0,0,6.055,61.1Z" transform="translate(0.004 1.667)" fill="#fff"/>
      <path id="Path_2" data-name="Path 2" d="M67.338,80.362c-1.271.313-2.939.657-5.023,1.042a43.291,43.291,0,0,1-7.211.531,15.226,15.226,0,0,1-6-1.042,9.65,9.65,0,0,1-3.918-2.939A11.922,11.922,0,0,1,43.1,73.474a23.3,23.3,0,0,1-.7-5.773V50.37h5.513V66.523q0,5.638,1.782,8.076t6,2.48q.9,0,1.845-.063l1.782-.146,1.511-.177a5.212,5.212,0,0,0,.98-.208V50.433h5.523Z" transform="translate(1.791 2.121)" fill="#fff"/>
      <path id="Path_3" data-name="Path 3" d="M75.364,45.293a3.564,3.564,0,0,1-2.522-.98,3.887,3.887,0,0,1,0-5.294,3.741,3.741,0,0,1,5.044,0,3.887,3.887,0,0,1,0,5.294A3.574,3.574,0,0,1,75.364,45.293Zm2.793,36.474H72.634V50.889h5.523Z" transform="translate(3.029 1.602)" fill="#fff"/>
      <path id="Path_4" data-name="Path 4" d="M97.612,82a16.851,16.851,0,0,1-6.565-1.188,13.266,13.266,0,0,1-4.742-3.324A13.83,13.83,0,0,1,83.418,72.4a20.989,20.989,0,0,1-.948-6.5,19.467,19.467,0,0,1,1.042-6.524,15.194,15.194,0,0,1,2.939-5.138,13.152,13.152,0,0,1,4.7-3.387A15.059,15.059,0,0,1,97.3,49.63a25.46,25.46,0,0,1,4.168.354,18.966,18.966,0,0,1,3.981,1.136L104.2,55.81a12.932,12.932,0,0,0-2.876-.948,16.2,16.2,0,0,0-3.481-.365,8.775,8.775,0,0,0-7.1,2.918q-2.512,2.908-2.512,8.483a17.466,17.466,0,0,0,.563,4.575,9.379,9.379,0,0,0,1.782,3.564A8,8,0,0,0,93.7,76.329a12.015,12.015,0,0,0,4.637.792,17.892,17.892,0,0,0,3.971-.406,14.476,14.476,0,0,0,2.793-.9l.771,4.637a5.68,5.68,0,0,1-1.365.563,18.3,18.3,0,0,1-2.022.469c-.75.135-1.553.261-2.4.354a20.416,20.416,0,0,1-2.48.156Z" transform="translate(3.479 2.09)" fill="#fff"/>
      <path id="Path_5" data-name="Path 5" d="M118.971,64.887a36.157,36.157,0,0,1,3.773,3.429c1.323,1.355,2.637,2.8,3.918,4.367s2.512,3.126,3.658,4.752q1.563,2.141,2.908,4.429h-6.461a48.7,48.7,0,0,0-2.887-4.241q-1.626-2.178-3.408-4.169a47.932,47.932,0,0,0-3.627-3.647,32.223,32.223,0,0,0-3.5-2.793v14.85H107.82V36.739l5.523-.959V63.917l3.126-3.126q1.719-1.72,3.387-3.5t3.126-3.408c.99-1.042,1.845-2.084,2.553-2.887h6.472l-2.97,3.272c-1.042,1.188-2.178,2.376-3.324,3.585s-2.3,2.418-3.47,3.627Z" transform="translate(4.547 1.506)" fill="#fff"/>
      <path id="Path_6" data-name="Path 6" d="M148.424,82.224c-2.261,0-4.5-.073-6.743-.208a49.127,49.127,0,0,1-6.972-.98V41.123a62.03,62.03,0,0,1,6.253-.8c2.251-.177,4.356-.261,6.253-.261a42.831,42.831,0,0,1,7.211.563,17.2,17.2,0,0,1,5.68,1.928,10.244,10.244,0,0,1,3.71,3.6,10.536,10.536,0,0,1,1.334,5.492q0,4.919-4.752,7.774a9.734,9.734,0,0,1,5.346,4.043,11.64,11.64,0,0,1,1.449,5.721q0,6.472-4.721,9.733T148.424,82.224Zm-4.69-25.553h4.512q4.273,0,6.117-1.042A3.783,3.783,0,0,0,156.2,52.1a3.606,3.606,0,0,0-1.9-3.5,12.172,12.172,0,0,0-5.586-1.042h-2.553a20.687,20.687,0,0,0-2.428.146Zm0,7.066V74.388c.667.083,1.407.146,2.2.188s1.657,0,2.605,0a16.039,16.039,0,0,0,6.711-1.188A4.387,4.387,0,0,0,157.8,69a4.3,4.3,0,0,0-2.136-3.991,12.506,12.506,0,0,0-6.065-1.261Z" transform="translate(5.679 1.687)" fill="#f29100"/>
      <path id="Path_7" data-name="Path 7" d="M179.3,41.583a4.856,4.856,0,0,1-1.574,3.783,5.627,5.627,0,0,1-7.42,0,4.825,4.825,0,0,1-1.574-3.825,4.867,4.867,0,0,1,1.574-3.835,5.628,5.628,0,0,1,7.42,0,4.9,4.9,0,0,1,1.574,3.877Zm-.834,40.257h-8.848V50.577h8.848Z" transform="translate(7.112 1.529)" fill="#f29100"/>
      <path id="Path_8" data-name="Path 8" d="M210.812,80.821c-.792.24-1.709.469-2.73.688s-2.084.406-3.241.563-2.272.292-3.439.386-2.293.146-3.356.146a19.654,19.654,0,0,1-6.888-1.125,13.9,13.9,0,0,1-5.106-3.231,14.089,14.089,0,0,1-3.126-5.106,19.352,19.352,0,0,1-1.1-6.743,22.926,22.926,0,0,1,.959-6.857,14.8,14.8,0,0,1,2.73-5.211,11.63,11.63,0,0,1,4.356-3.262,14.59,14.59,0,0,1,5.909-1.136,13.808,13.808,0,0,1,3.3.365,17.8,17.8,0,0,1,2.939,1.042V37.208l8.848-1.428ZM190.8,65.981a10.8,10.8,0,0,0,1.834,6.586,6.357,6.357,0,0,0,5.461,2.5,16.293,16.293,0,0,0,2.2-.094c.667-.094,1.23-.125,1.667-.208V58.707a7.848,7.848,0,0,0-2.168-.9,10.848,10.848,0,0,0-2.7-.354q-6.294,0-6.294,8.556Z" transform="translate(7.664 1.506)" fill="#f29100"/>
      <path id="Path_9" data-name="Path 9" d="M207.654,29.039l2.824-2.824a2,2,0,0,0-2.824-2.824l-2.824,2.824a2,2,0,0,0,2.824,2.824Z" transform="translate(8.612 0.963)" fill="#fff"/>
      <path id="Path_10" data-name="Path 10" d="M206.867,21.381a2,2,0,0,0,0-3.991h-4a2,2,0,0,0,0,3.991Z" transform="translate(8.472 0.732)" fill="#fff"/>
      <path id="Path_11" data-name="Path 11" d="M216.371,11.877v-4a2,2,0,0,0-3.991,0v4a2,2,0,0,0,3.991,0Z" transform="translate(8.951 0.253)" fill="#fff"/>
      <path id="Path_12" data-name="Path 12" d="M212.38,27.087v3.96a2,2,0,1,0,3.991,0v-3.96a2,2,0,1,0-3.991,0Z" transform="translate(8.951 1.05)" fill="#fff"/>
      <path id="Path_13" data-name="Path 13" d="M210.482,15.492a1.99,1.99,0,0,0,0-2.824l-2.824-2.835a2,2,0,1,0-2.824,2.835l2.824,2.824a1.99,1.99,0,0,0,2.824,0Z" transform="translate(8.608 0.389)" fill="#fff"/>
      <path id="Path_14" data-name="Path 14" d="M255.467,55.618,269.588,41.5a6.013,6.013,0,0,0,0-8.483L238.324,1.751a6,6,0,0,0-8.472,0L215.721,15.882a6,6,0,0,0,0,8.472l31.264,31.264a6.013,6.013,0,0,0,8.483,0Zm-31.274-36.86a1.99,1.99,0,1,1-.588,1.412,2,2,0,0,1,.588-1.412Zm5.659,5.648a1.93,1.93,0,1,1,0-.052Z" transform="translate(9.018 -0.001)" fill="#f29100"/>
      <path id="Path_15" data-name="Path 15" d="M226.157,78.208a1.74,1.74,0,0,1-.594,1.428,2.084,2.084,0,0,1-2.689,0,2.011,2.011,0,0,1,0-2.855,2.084,2.084,0,0,1,2.689,0,1.751,1.751,0,0,1,.594,1.428Z" transform="translate(9.368 3.213)" fill="#fff"/>
      <path id="Path_16" data-name="Path 16" d="M225.85,74.683a6.409,6.409,0,0,1,.386-2.241,5.211,5.211,0,0,1,1.115-1.834,5.315,5.315,0,0,1,1.772-1.24,5.856,5.856,0,0,1,2.376-.448,7.723,7.723,0,0,1,1.6.146,9.724,9.724,0,0,1,1.417.448l-.646,2.48a9.537,9.537,0,0,0-.959-.292,5.074,5.074,0,0,0-1.167-.125,2.48,2.48,0,0,0-2.084.855,3.491,3.491,0,0,0-.677,2.251,3.616,3.616,0,0,0,.636,2.293,2.647,2.647,0,0,0,2.22.813,7.3,7.3,0,0,0,1.209-.1,4.752,4.752,0,0,0,1.188-.333l.438,2.543a6.629,6.629,0,0,1-1.355.4,8.733,8.733,0,0,1-1.792.167,6.67,6.67,0,0,1-2.584-.448,4.756,4.756,0,0,1-2.824-3.043,7.6,7.6,0,0,1-.271-2.282Z" transform="translate(9.518 2.902)" fill="#fff"/>
      <path id="Path_17" data-name="Path 17" d="M245.124,74.662a7.088,7.088,0,0,1-.386,2.366,4.814,4.814,0,0,1-1.042,1.834,4.7,4.7,0,0,1-1.688,1.178,5.658,5.658,0,0,1-2.22.417,5.513,5.513,0,0,1-2.2-.417,4.658,4.658,0,0,1-1.7-1.178,5.138,5.138,0,0,1-1.1-1.834,7.139,7.139,0,0,1,0-4.721,5.347,5.347,0,0,1,1.125-1.813,5.034,5.034,0,0,1,1.709-1.167,5.6,5.6,0,0,1,2.157-.406,5.711,5.711,0,0,1,2.178.406,5.1,5.1,0,0,1,1.7,1.167,5.461,5.461,0,0,1,1.1,1.813A6.8,6.8,0,0,1,245.124,74.662Zm-3.126,0a3.97,3.97,0,0,0-.573-2.261,2.084,2.084,0,0,0-3.283,0,3.8,3.8,0,0,0-.584,2.261,3.9,3.9,0,0,0,.584,2.282,2.022,2.022,0,0,0,3.283,0,4.064,4.064,0,0,0,.531-2.282Z" transform="translate(9.878 2.902)" fill="#fff"/>
      <path id="Path_18" data-name="Path 18" d="M248.457,78.208a1.74,1.74,0,0,1-.594,1.428,2.084,2.084,0,0,1-2.689,0,2.011,2.011,0,0,1,0-2.855,2.084,2.084,0,0,1,2.689,0A1.751,1.751,0,0,1,248.457,78.208Z" transform="translate(10.308 3.213)" fill="#fff"/>
      <path id="Path_19" data-name="Path 19" d="M252.407,73.37l.948-1.042c.323-.365.646-.719.948-1.042l.865-1.042c.271-.313.5-.594.7-.834h3.689c-.729.855-1.449,1.657-2.157,2.428s-1.469,1.563-2.3,2.376a13.631,13.631,0,0,1,1.292,1.355c.448.521.875,1.042,1.292,1.615s.8,1.115,1.146,1.667a16.271,16.271,0,0,1,.875,1.522h-3.564l-.761-1.2q-.438-.657-.907-1.313a13.228,13.228,0,0,0-1.042-1.271,8.713,8.713,0,0,0-1.042-1.042v4.8H249.26V64.72l3.126-.5Z" transform="translate(10.505 2.704)" fill="#fff"/>
      <path id="Path_20" data-name="Path 20" d="M258.66,74.767a6.857,6.857,0,0,1,.448-2.553,5.68,5.68,0,0,1,1.178-1.824,5.106,5.106,0,0,1,1.678-1.1,5.21,5.21,0,0,1,1.949-.365,4.856,4.856,0,0,1,3.689,1.417,5.888,5.888,0,0,1,1.355,4.169q0,.281,0,.594v.573h-7.045a2.084,2.084,0,0,0,.9,1.521,3.616,3.616,0,0,0,2.084.563,8.972,8.972,0,0,0,1.678-.156,6.023,6.023,0,0,0,1.344-.386l.417,2.522a4.17,4.17,0,0,1-.667.25,8.717,8.717,0,0,1-.927.219q-.521.094-1.094.156a10.952,10.952,0,0,1-1.167.063,6.9,6.9,0,0,1-2.574-.438,4.971,4.971,0,0,1-1.845-1.167,4.68,4.68,0,0,1-1.042-1.8A7.076,7.076,0,0,1,258.66,74.767Zm7.295-1.188a3.229,3.229,0,0,0-.135-.771,1.958,1.958,0,0,0-.354-.667,1.991,1.991,0,0,0-.6-.479,1.949,1.949,0,0,0-.907-.188,2.146,2.146,0,0,0-.9.177,2.083,2.083,0,0,0-.625.469,2.292,2.292,0,0,0-.386.677,4.3,4.3,0,0,0-.2.782Z" transform="translate(10.901 2.902)" fill="#fff"/>
    </g>
  </g>
</svg>
