<svg xmlns="http://www.w3.org/2000/svg" width="309.987" height="298.029" viewBox="0 0 309.987 298.029">
  <g id="Group_14" data-name="Group 14" transform="translate(-1022.887 -5425.846)">
    <g id="undraw_in_thought_gjsf" transform="translate(779.497 5384.454)">
      <circle id="Ellipse_9" data-name="Ellipse 9" cx="24.726" cy="24.726" r="24.726" transform="translate(312.016 128.773)" fill="#9fb6fa"/>
      <circle id="Ellipse_10" data-name="Ellipse 10" cx="24.726" cy="24.726" r="24.726" transform="translate(317.816 118.699)" fill="none" stroke="#dbd9ff" stroke-miterlimit="10" stroke-width="1"/>
      <circle id="Ellipse_11" data-name="Ellipse 11" cx="14.386" cy="14.386" r="14.386" transform="translate(515.972 74.407)" fill="#002698"/>
      <circle id="Ellipse_12" data-name="Ellipse 12" cx="14.386" cy="14.386" r="14.386" transform="translate(519.347 68.546)" fill="none" stroke="#d9d7fc" stroke-miterlimit="10" stroke-width="1"/>
      <circle id="Ellipse_13" data-name="Ellipse 13" cx="20.68" cy="20.68" r="20.68" transform="translate(243.39 298.062)" fill="#002698"/>
      <circle id="Ellipse_14" data-name="Ellipse 14" cx="20.68" cy="20.68" r="20.68" transform="translate(248.241 289.637)" fill="none" stroke="#c8c5f8" stroke-miterlimit="10" stroke-width="1"/>
    </g>
    <g id="Group_11" data-name="Group 11" transform="translate(277.412 4123.19) rotate(45)" opacity="0.091">
      <path id="Path_49" data-name="Path 49" d="M213.446,39.75l7.744-7.744a5.486,5.486,0,0,0-7.744-7.744L205.7,32.006a5.486,5.486,0,0,0,7.744,7.744Z" transform="translate(1441.641 212.591)" fill="#002698"/>
      <path id="Path_50" data-name="Path 50" d="M217.072,28.334a5.486,5.486,0,0,0,0-10.944H206.1a5.486,5.486,0,0,0,0,10.944Z" transform="translate(1435.472 202.376)" fill="#002698"/>
      <path id="Path_51" data-name="Path 51" d="M223.324,22.082V11.109a5.486,5.486,0,0,0-10.944,0V22.082a5.486,5.486,0,0,0,10.944,0Z" transform="translate(1456.594 181.253)" fill="#002698"/>
      <path id="Path_52" data-name="Path 52" d="M212.389,30.824V41.682a5.486,5.486,0,1,0,10.944,0V30.824a5.486,5.486,0,1,0-10.944,0Z" transform="translate(1456.585 216.403)" fill="#002698"/>
      <path id="Path_53" data-name="Path 53" d="M221.347,26.366a5.458,5.458,0,0,0,0-7.744L213.6,10.85a5.486,5.486,0,1,0-7.744,7.773l7.744,7.743a5.458,5.458,0,0,0,7.744,0Z" transform="translate(1441.483 187.255)" fill="#002698"/>
    </g>
  </g>
</svg>
