<svg xmlns="http://www.w3.org/2000/svg" viewBox="0 0 269.02 90.54"><defs><style>.cls-1{fill:#002698;}.cls-2{fill:#f29100;}</style></defs><g id="Layer_2" data-name="Layer 2"><g id="Layer_1-2" data-name="Layer 1"><path class="cls-1" d="M0,60.23a24.51,24.51,0,0,1,1.51-8.95,18.44,18.44,0,0,1,4.1-6.46,17.06,17.06,0,0,1,6-3.91A20.53,20.53,0,0,1,19,39.6a19.87,19.87,0,0,1,7.2,1.31,16.92,16.92,0,0,1,6,3.91,18.52,18.52,0,0,1,4.07,6.46,24.51,24.51,0,0,1,1.51,8.95,25.4,25.4,0,0,1-1.14,7.92,19,19,0,0,1-3.16,6,16.76,16.76,0,0,1-4.73,4.1,17.84,17.84,0,0,1-5.78,2.14,3.17,3.17,0,0,0,1.17,2.31,9.58,9.58,0,0,0,2.82,1.68,23.15,23.15,0,0,0,3.81,1.14,41.15,41.15,0,0,0,4.22.68l-1.31,4.33A52.86,52.86,0,0,1,28,89.49a23.91,23.91,0,0,1-4.9-1.74A11.82,11.82,0,0,1,19.37,85a9,9,0,0,1-2-4.19,19.11,19.11,0,0,1-6.78-1.68,16.66,16.66,0,0,1-5.53-4.05,19,19,0,0,1-3.7-6.29A24.66,24.66,0,0,1,0,60.23Zm5.81,0a22.14,22.14,0,0,0,.91,6.52,14.67,14.67,0,0,0,2.6,5,11.26,11.26,0,0,0,4.1,3.16A12.9,12.9,0,0,0,18.86,76a12.7,12.7,0,0,0,5.41-1.11,11.36,11.36,0,0,0,4.08-3.16,14.66,14.66,0,0,0,2.59-5,23.81,23.81,0,0,0,0-13,14.66,14.66,0,0,0-2.59-5,11.36,11.36,0,0,0-4.08-3.16,12.7,12.7,0,0,0-5.41-1.11,12.9,12.9,0,0,0-5.44,1.11,11.26,11.26,0,0,0-4.1,3.16,14.67,14.67,0,0,0-2.6,5A22.14,22.14,0,0,0,5.81,60.23Z"/><path class="cls-1" d="M66.33,79.15c-1.22.3-2.82.63-4.82,1a41.54,41.54,0,0,1-6.92.51,14.61,14.61,0,0,1-5.76-1,9.26,9.26,0,0,1-3.76-2.82,11.44,11.44,0,0,1-2-4.3A22.36,22.36,0,0,1,42.4,67V50.37h5.29v15.5q0,5.41,1.71,7.75T55.16,76q.86,0,1.77-.06l1.71-.14,1.45-.17a5,5,0,0,0,.94-.2v-25h5.3Z"/><path class="cls-1" d="M75.22,45a3.42,3.42,0,0,1-2.42-.94,3.73,3.73,0,0,1,0-5.08,3.59,3.59,0,0,1,4.84,0,3.73,3.73,0,0,1,0,5.08A3.43,3.43,0,0,1,75.22,45ZM77.9,80H72.6V50.37h5.3Z"/><path class="cls-1" d="M97,80.69a16.17,16.17,0,0,1-6.3-1.14,12.73,12.73,0,0,1-4.55-3.19,13.27,13.27,0,0,1-2.77-4.88,20.14,20.14,0,0,1-.91-6.24,18.68,18.68,0,0,1,1-6.26,14.58,14.58,0,0,1,2.82-4.93A12.62,12.62,0,0,1,90.8,50.8a14.45,14.45,0,0,1,5.9-1.17,24.43,24.43,0,0,1,4,.34,18.2,18.2,0,0,1,3.82,1.09l-1.2,4.5a12.41,12.41,0,0,0-2.76-.91,15.55,15.55,0,0,0-3.34-.35,8.42,8.42,0,0,0-6.81,2.8Q88,59.89,88,65.24a16.76,16.76,0,0,0,.54,4.39,9,9,0,0,0,1.71,3.42,7.68,7.68,0,0,0,3,2.2,11.53,11.53,0,0,0,4.45.76,17.17,17.17,0,0,0,3.81-.39,13.89,13.89,0,0,0,2.68-.86l.74,4.45a5.45,5.45,0,0,1-1.31.54,17.56,17.56,0,0,1-1.94.45c-.72.13-1.49.25-2.3.34A19.59,19.59,0,0,1,97,80.69Z"/><path class="cls-1" d="M118.52,63.71A34.7,34.7,0,0,1,122.14,67c1.27,1.3,2.53,2.69,3.76,4.19s2.41,3,3.51,4.56A51.13,51.13,0,0,1,132.2,80H126a46.72,46.72,0,0,0-2.77-4.07q-1.56-2.09-3.27-4a46,46,0,0,0-3.48-3.5,30.92,30.92,0,0,0-3.36-2.68V80h-5.3V36.7l5.3-.92v27l3-3q1.65-1.65,3.25-3.36t3-3.27c.95-1,1.77-2,2.45-2.77h6.21l-2.85,3.14c-1,1.14-2.09,2.28-3.19,3.44s-2.21,2.32-3.33,3.48Z"/><path class="cls-2" d="M147.87,80.52c-2.17,0-4.32-.07-6.47-.2a47.14,47.14,0,0,1-6.69-.94V41.08a59.52,59.52,0,0,1,6-.77c2.16-.17,4.18-.25,6-.25a41.1,41.1,0,0,1,6.92.54,16.5,16.5,0,0,1,5.45,1.85,9.83,9.83,0,0,1,3.56,3.45,10.11,10.11,0,0,1,1.28,5.27q0,4.72-4.56,7.46a9.34,9.34,0,0,1,5.13,3.88A11.17,11.17,0,0,1,165.88,68q0,6.21-4.53,9.34T147.87,80.52ZM143.37,56h4.33q4.1,0,5.87-1a3.63,3.63,0,0,0,1.76-3.39,3.46,3.46,0,0,0-1.82-3.36,11.68,11.68,0,0,0-5.36-1l-2.45,0c-.87,0-1.65.06-2.33.14Zm0,6.78V73c.64.08,1.35.14,2.11.18s1.59,0,2.5,0a15.39,15.39,0,0,0,6.44-1.14,4.21,4.21,0,0,0,2.45-4.21A4.13,4.13,0,0,0,154.82,64,12,12,0,0,0,149,62.79Z"/><path class="cls-2" d="M178.87,41.37A4.66,4.66,0,0,1,177.36,45a5.4,5.4,0,0,1-7.12,0,4.63,4.63,0,0,1-1.51-3.67,4.67,4.67,0,0,1,1.51-3.68,5.4,5.4,0,0,1,7.12,0A4.7,4.7,0,0,1,178.87,41.37ZM178.07,80h-8.49V50h8.49Z"/><path class="cls-2" d="M209.64,79c-.76.23-1.64.45-2.62.66s-2,.39-3.11.54-2.18.28-3.3.37-2.2.14-3.22.14a18.86,18.86,0,0,1-6.61-1.08,13.34,13.34,0,0,1-4.9-3.1,13.52,13.52,0,0,1-3-4.9,18.57,18.57,0,0,1-1.06-6.47,22,22,0,0,1,.92-6.58,14.2,14.2,0,0,1,2.62-5,11.16,11.16,0,0,1,4.18-3.13,14,14,0,0,1,5.67-1.09,13.25,13.25,0,0,1,3.17.35,17.08,17.08,0,0,1,2.82,1V37.15l8.49-1.37Zm-19.2-14.24a10.36,10.36,0,0,0,1.76,6.32,6.1,6.1,0,0,0,5.24,2.4c.76,0,1.47,0,2.11-.09s1.18-.12,1.6-.2V57.78a7.53,7.53,0,0,0-2.08-.86,10.41,10.41,0,0,0-2.59-.34Q190.44,56.58,190.44,64.79Z"/><path class="cls-1" d="M207.52,28.79l2.71-2.71a1.92,1.92,0,0,0-2.71-2.71l-2.71,2.71a1.92,1.92,0,0,0,2.71,2.71Z"/><path class="cls-1" d="M206.63,21.22a1.92,1.92,0,0,0,0-3.83h-3.84a1.92,1.92,0,0,0,0,3.83Z"/><path class="cls-1" d="M216.21,11.64V7.8a1.92,1.92,0,0,0-3.83,0v3.84a1.92,1.92,0,0,0,3.83,0Z"/><path class="cls-1" d="M212.38,27V30.8a1.92,1.92,0,1,0,3.83,0V27a1.92,1.92,0,1,0-3.83,0Z"/><path class="cls-1" d="M210.23,15.24a1.91,1.91,0,0,0,0-2.71l-2.71-2.72a1.92,1.92,0,0,0-2.71,2.72l2.71,2.71A1.91,1.91,0,0,0,210.23,15.24Z"/><path class="cls-2" d="M253.79,53.37l13.55-13.55a5.77,5.77,0,0,0,0-8.14l-30-30a5.76,5.76,0,0,0-8.13,0L215.65,15.24a5.76,5.76,0,0,0,0,8.13l30,30A5.77,5.77,0,0,0,253.79,53.37ZM223.78,18a1.92,1.92,0,1,1,0,2.71A1.91,1.91,0,0,1,223.78,18Zm5.43,5.42a1.92,1.92,0,1,1,0,2.71A1.91,1.91,0,0,1,229.21,23.37Z"/><path class="cls-1" d="M226,78.13a1.67,1.67,0,0,1-.57,1.37,2,2,0,0,1-2.58,0,1.93,1.93,0,0,1,0-2.74,2,2,0,0,1,2.58,0A1.68,1.68,0,0,1,226,78.13Z"/><path class="cls-1" d="M225.85,74.45a6.15,6.15,0,0,1,.37-2.15,5,5,0,0,1,1.07-1.76,5.1,5.1,0,0,1,1.7-1.19,5.62,5.62,0,0,1,2.28-.43,7.41,7.41,0,0,1,1.54.14,9.33,9.33,0,0,1,1.36.43l-.62,2.38a9.15,9.15,0,0,0-.92-.28,4.87,4.87,0,0,0-1.12-.12,2.38,2.38,0,0,0-2,.82,3.35,3.35,0,0,0-.65,2.16,3.47,3.47,0,0,0,.61,2.2,2.54,2.54,0,0,0,2.13.78,7,7,0,0,0,1.16-.1,4.56,4.56,0,0,0,1.14-.32l.42,2.44a6.36,6.36,0,0,1-1.3.38,8.38,8.38,0,0,1-1.72.16,6.4,6.4,0,0,1-2.48-.43,4.41,4.41,0,0,1-1.71-1.17,4.37,4.37,0,0,1-1-1.75A7.29,7.29,0,0,1,225.85,74.45Z"/><path class="cls-1" d="M244.69,74.43a6.8,6.8,0,0,1-.37,2.27,4.62,4.62,0,0,1-1,1.76,4.51,4.51,0,0,1-1.62,1.13,5.43,5.43,0,0,1-2.13.4,5.29,5.29,0,0,1-2.11-.4,4.47,4.47,0,0,1-1.63-1.13,4.93,4.93,0,0,1-1.06-1.76,6.85,6.85,0,0,1,0-4.53,5.13,5.13,0,0,1,1.08-1.74,4.83,4.83,0,0,1,1.64-1.12,5.37,5.37,0,0,1,2.07-.39,5.48,5.48,0,0,1,2.09.39,4.89,4.89,0,0,1,1.63,1.12,5.24,5.24,0,0,1,1.06,1.74A6.53,6.53,0,0,1,244.69,74.43Zm-3,0a3.81,3.81,0,0,0-.55-2.17,2,2,0,0,0-3.15,0,3.65,3.65,0,0,0-.56,2.17,3.74,3.74,0,0,0,.56,2.19,1.94,1.94,0,0,0,3.15,0A3.9,3.9,0,0,0,241.65,74.43Z"/><path class="cls-1" d="M248.3,78.13a1.67,1.67,0,0,1-.57,1.37,2,2,0,0,1-2.58,0,1.93,1.93,0,0,1,0-2.74,2,2,0,0,1,2.58,0A1.68,1.68,0,0,1,248.3,78.13Z"/><path class="cls-1" d="M252.28,73l.91-1c.31-.35.62-.69.91-1l.83-1c.26-.3.48-.57.67-.8h3.54c-.7.82-1.39,1.59-2.07,2.33s-1.41,1.5-2.21,2.28a13.08,13.08,0,0,1,1.24,1.3c.43.5.84,1,1.24,1.55s.77,1.07,1.1,1.6.62,1,.84,1.46h-3.42l-.73-1.15q-.42-.63-.87-1.26c-.31-.42-.63-.83-1-1.22a8.36,8.36,0,0,0-1-1v4.61h-3v-15l3-.48Z"/><path class="cls-1" d="M258.66,74.53a6.58,6.58,0,0,1,.43-2.45,5.45,5.45,0,0,1,1.13-1.75,4.9,4.9,0,0,1,1.61-1.06,5,5,0,0,1,1.87-.35,4.66,4.66,0,0,1,3.54,1.36,5.65,5.65,0,0,1,1.3,4c0,.18,0,.37,0,.57s0,.39,0,.55h-6.76a2,2,0,0,0,.86,1.46,3.47,3.47,0,0,0,2,.54,8.61,8.61,0,0,0,1.61-.15,5.78,5.78,0,0,0,1.29-.37l.4,2.42a4,4,0,0,1-.64.24,8.37,8.37,0,0,1-.89.21q-.5.09-1.05.15a10.51,10.51,0,0,1-1.12.06,6.62,6.62,0,0,1-2.47-.42A4.77,4.77,0,0,1,260,78.42a4.49,4.49,0,0,1-1-1.73A6.79,6.79,0,0,1,258.66,74.53Zm7-1.14a3.1,3.1,0,0,0-.13-.74,1.88,1.88,0,0,0-.34-.64,1.91,1.91,0,0,0-.58-.46,1.87,1.87,0,0,0-.87-.18,2.06,2.06,0,0,0-.86.17,2,2,0,0,0-.6.45,2.2,2.2,0,0,0-.37.65,4.13,4.13,0,0,0-.19.75Z"/></g></g></svg>